<svg width="18" height="18" viewBox="0 0 18 18" fill="none" xmlns="http://www.w3.org/2000/svg">
<path d="M15.0359 8.82141L7.16086 17.2589C7.0774 17.348 6.96725 17.4075 6.84701 17.4284C6.72678 17.4494 6.60298 17.4307 6.49431 17.3751C6.38565 17.3196 6.298 17.2302 6.2446 17.1204C6.1912 17.0107 6.17494 16.8865 6.19828 16.7667L7.22906 11.6107L3.17695 10.0891C3.08993 10.0566 3.01232 10.003 2.95107 9.93312C2.88981 9.86326 2.84682 9.77931 2.82593 9.68878C2.80504 9.59824 2.8069 9.50394 2.83134 9.4143C2.85579 9.32466 2.90205 9.24247 2.96601 9.17508L10.841 0.737578C10.9245 0.648517 11.0346 0.589015 11.1549 0.568052C11.2751 0.547089 11.3989 0.565802 11.5076 0.621366C11.6162 0.676931 11.7039 0.766333 11.7573 0.876081C11.8107 0.985829 11.8269 1.10997 11.8036 1.22977L10.77 6.39141L14.8221 7.91086C14.9085 7.94363 14.9855 7.99717 15.0462 8.06676C15.107 8.13635 15.1497 8.21983 15.1706 8.30984C15.1914 8.39985 15.1898 8.4936 15.1658 8.58283C15.1418 8.67205 15.0962 8.75399 15.033 8.82141H15.0359Z" fill="white"/>
</svg>
