<svg width="18" height="18" viewBox="0 0 18 18" fill="none" xmlns="http://www.w3.org/2000/svg">
<path d="M13.1585 8.07469L15.0414 6.00329C15.1397 5.89256 15.1903 5.74758 15.1823 5.59978C15.1744 5.45198 15.1085 5.31326 14.999 5.21372C14.8894 5.11417 14.7451 5.06181 14.5972 5.06799C14.4493 5.07417 14.3098 5.13839 14.2089 5.24672L12.764 6.83579L11.5546 3.03399C11.4828 2.80607 11.3401 2.60707 11.1472 2.46604C10.9543 2.325 10.7213 2.2493 10.4824 2.25H7.51731C7.27835 2.2493 7.04542 2.325 6.85252 2.46604C6.65962 2.60707 6.51685 2.80607 6.44504 3.03399L2.86543 14.284C2.81179 14.4526 2.79869 14.6315 2.82719 14.8062C2.85569 14.9809 2.92499 15.1463 3.02946 15.2892C3.13394 15.432 3.27063 15.5482 3.42844 15.6282C3.58625 15.7083 3.76073 15.75 3.9377 15.75H14.0627C14.2397 15.75 14.4141 15.7083 14.5719 15.6282C14.7298 15.5482 14.8665 15.432 14.9709 15.2892C15.0754 15.1463 15.1447 14.9809 15.1732 14.8062C15.2017 14.6315 15.1886 14.4526 15.135 14.284L13.1585 8.07469ZM5.01137 11.25L7.51731 3.375H10.4824L11.8886 7.79766L8.75129 11.25H5.01137ZM10.2714 11.25L12.2838 9.03657L12.9869 11.25H10.2714Z" fill="white"/>
</svg>
